<?xml version="1.0" encoding="utf-8"?><!-- Uploaded to: SVG Repo, www.svgrepo.com, Generator: SVG Repo Mixer Tools -->
<svg width="800px" height="800px" viewBox="0 0 24 24" fill="none" xmlns="http://www.w3.org/2000/svg">
<path fill-rule="evenodd" clip-rule="evenodd" d="M18.3956 19.7691C19.0541 20.2687 20 19.799 20 18.9724L20 5.02764C20 4.20106 19.0541 3.73137 18.3956 4.23095L9.20476 11.2033C8.67727 11.6035 8.67727 12.3965 9.20476 12.7967L18.3956 19.7691ZM22 18.9724C22 21.4521 19.1624 22.8612 17.1868 21.3625L7.99598 14.3901C6.41353 13.1896 6.41353 10.8104 7.99599 9.60994L17.1868 2.63757C19.1624 1.13885 22 2.5479 22 5.02764L22 18.9724Z" fill="#0F0F0F"/>
<path d="M2 3C2 2.44772 2.44772 2 3 2C3.55228 2 4 2.44772 4 3V21C4 21.5523 3.55228 22 3 22C2.44772 22 2 21.5523 2 21V3Z" fill="#0F0F0F"/>
</svg>